<?xml version="1.0" encoding="utf-8"?>
<svg id="master-artboard" viewBox="0 0 1400 980" version="1.1" xmlns="http://www.w3.org/2000/svg" x="0px" y="0px" style="enable-background:new 0 0 336 235.2;" width="1400px" height="980px"><defs><linearGradient id="gradient-0" gradientUnits="userSpaceOnUse" x1="700" y1="0" x2="700" y2="980">
                <stop offset="0" style="stop-color: #ffffff"/>
                <stop offset="1" style="stop-color: #cccccc"/>
              </linearGradient><radialGradient id="gradient-1" gradientUnits="objectBoundingBox" cx="0.5" cy="0.5" r="0.5">
                <stop offset="0" style="stop-color: #ffffff"/>
                <stop offset="1" style="stop-color: #cccccc"/>
              </radialGradient></defs><g transform="matrix(1.3974258049522177, -0.01130347332493784, 0.01130347332493784, 1.3974258049522177, -342.2496767957439, -186.28411335301644)"><rect id="ee-background" x="0" y="0" width="1400" height="980" style="fill: rgb(255, 255, 255); fill-opacity: 0; pointer-events: none;"/><path d="M 745.4818725585938 546.6368408203125 C 745.1285400390625 545.036865234375 744.951904296875 543.3001708984375 744.951904296875 541.4268798828125 C 744.951904296875 539.546875 744.951904296875 537.7034912109375 744.951904296875 535.8968505859375 C 744.951904296875 531.2435302734375 744.8485107421875 526.6401977539062 744.641845703125 522.0868530273438 C 744.4351806640625 517.5401611328125 744.2085571289062 513.0068359375 743.9618530273438 508.4868469238281 C 743.7218627929688 503.9735107421875 743.5151977539062 499.42352294921875 743.3418579101562 494.83685302734375 C 743.1685180664062 490.25018310546875 743.15185546875 485.593505859375 743.2918701171875 480.8668518066406 L 744.1218872070312 426.45684814453125 C 744.1218872070312 421.87017822265625 744.8185424804688 418.15350341796875 746.2118530273438 415.3068542480469 C 747.5985107421875 412.4535217285156 750.0985107421875 411.02685546875 753.7118530273438 411.02685546875 C 755.0318603515625 411.02685546875 756.2318725585938 411.3068542480469 757.3118896484375 411.8668518066406 C 758.3851928710938 412.420166015625 759.3052368164062 413.13018798828125 760.0718994140625 413.9968566894531 C 760.8385620117188 414.87017822265625 761.4285278320312 415.82684326171875 761.8418579101562 416.8668518066406 C 762.2619018554688 417.9068603515625 762.4718627929688 418.91351318359375 762.4718627929688 419.8868408203125 L 762.4718627929688 496.3968505859375 C 762.4718627929688 503.9701843261719 762.6285400390625 511.5635070800781 762.94189453125 519.1768798828125 C 763.24853515625 526.7835083007812 764.0985107421875 534.4768676757812 765.4918823242188 542.2568359375 C 765.6985473632812 543.5101928710938 766.028564453125 544.536865234375 766.4818725585938 545.3368530273438 C 766.9351806640625 546.1368408203125 767.4552001953125 546.7601928710938 768.0418701171875 547.2068481445312 C 768.6351928710938 547.66015625 769.278564453125 547.9568481445312 769.9718627929688 548.0968627929688 C 770.6652221679688 548.2368774414062 771.3251953125 548.3068237304688 771.951904296875 548.3068237304688 C 772.9918823242188 548.3068237304688 773.8618774414062 548.0802001953125 774.5618896484375 547.6268310546875 C 775.2551879882812 547.1735229492188 775.7752075195312 546.7401733398438 776.1218872070312 546.3268432617188 C 776.5418701171875 545.8402099609375 776.9752197265625 545.3701782226562 777.421875 544.9168701171875 C 777.8751831054688 544.4635009765625 778.3785400390625 544.046875 778.931884765625 543.6668701171875 C 779.4918823242188 543.286865234375 780.171875 542.9901733398438 780.9718627929688 542.77685546875 C 781.7718505859375 542.5701904296875 782.7252197265625 542.4668579101562 783.8318481445312 542.4668579101562 C 785.085205078125 542.4668579101562 786.1652221679688 542.7268676757812 787.0718994140625 543.246826171875 C 787.9718627929688 543.766845703125 788.7352294921875 544.4468383789062 789.3618774414062 545.286865234375 C 789.988525390625 546.1201782226562 790.4585571289062 547.0568237304688 790.7718505859375 548.0968627929688 C 791.0785522460938 549.1368408203125 791.2318725585938 550.18017578125 791.2318725585938 551.2268676757812 C 791.2318725585938 553.3801879882812 790.5918579101562 555.343505859375 789.3118896484375 557.1168823242188 C 788.0252075195312 558.883544921875 786.4085693359375 560.3934936523438 784.4618530273438 561.6468505859375 C 782.5151977539062 562.9002075195312 780.3952026367188 563.87353515625 778.1018676757812 564.5668334960938 C 775.8085327148438 565.2601928710938 773.6552124023438 565.6068725585938 771.641845703125 565.6068725585938 C 764.4152221679688 565.746826171875 758.59521484375 564.2001953125 754.181884765625 560.9668579101562 C 749.7685546875 557.7401733398438 746.8685302734375 552.9635009765625 745.4818725585938 546.6368408203125 ZM 807.06787109375 515.5768432617188 C 807.06787109375 505.7101745605469 808.4945068359375 496.7801818847656 811.3478393554688 488.786865234375 C 814.1945190429688 480.79351806640625 818.3978271484375 473.9835205078125 823.9578247070312 468.3568420410156 C 829.517822265625 462.7301940917969 836.344482421875 458.3868408203125 844.4378662109375 455.32684326171875 C 852.5311889648438 452.2735290527344 861.8612060546875 450.7468566894531 872.4278564453125 450.7468566894531 C 876.0411987304688 450.7468566894531 879.7412109375 451.1268615722656 883.52783203125 451.8868408203125 C 887.3145141601562 452.65350341796875 890.9778442382812 453.766845703125 894.517822265625 455.22686767578125 C 898.0645141601562 456.6868591308594 901.4178466796875 458.4935302734375 904.577880859375 460.6468505859375 C 907.7445068359375 462.8001708984375 910.5078125 465.28350830078125 912.8678588867188 468.09686279296875 C 915.2278442382812 470.9101867675781 917.0878295898438 474.036865234375 918.4478759765625 477.47686767578125 C 919.8011474609375 480.9168701171875 920.4778442382812 484.65350341796875 920.4778442382812 488.6868591308594 C 920.4778442382812 491.81353759765625 919.7811889648438 494.0701904296875 918.3878173828125 495.45684814453125 C 917.0011596679688 496.8501892089844 915.1611938476562 497.8235168457031 912.8678588867188 498.3768615722656 C 910.8544921875 498.93017578125 908.5078125 499.43353271484375 905.827880859375 499.8868408203125 C 903.154541015625 500.3401794433594 900.1511840820312 501.08685302734375 896.81787109375 502.1268615722656 L 827.0878295898438 523.806884765625 C 827.9878540039062 528.046875 829.4645385742188 531.66015625 831.517822265625 534.6468505859375 C 833.5645141601562 537.6401977539062 835.961181640625 540.1434936523438 838.7078247070312 542.1568603515625 C 841.4545288085938 544.170166015625 844.441162109375 545.766845703125 847.6678466796875 546.9468383789062 C 850.9011840820312 548.133544921875 854.1511840820312 549.0202026367188 857.4178466796875 549.6068725585938 C 860.6845092773438 550.2001953125 863.864501953125 550.58349609375 866.9578247070312 550.7568359375 C 870.0444946289062 550.93017578125 872.8411865234375 551.016845703125 875.3478393554688 551.016845703125 C 879.307861328125 551.016845703125 883.231201171875 550.5635375976562 887.1178588867188 549.6568603515625 C 891.0111694335938 548.7568359375 894.5911865234375 547.7501831054688 897.8578491210938 546.6368408203125 C 901.12451171875 545.5234985351562 903.9912109375 544.516845703125 906.4578247070312 543.6168823242188 C 908.9244995117188 542.710205078125 910.7145385742188 542.2568359375 911.827880859375 542.2568359375 C 915.5078125 542.2568359375 918.201171875 543.0902099609375 919.9078369140625 544.7568359375 C 921.6078491210938 546.43017578125 922.4578247070312 549.036865234375 922.4578247070312 552.5768432617188 C 922.4578247070312 554.8701782226562 921.2944946289062 556.8501586914062 918.9678344726562 558.516845703125 C 916.6411743164062 560.1835327148438 913.634521484375 561.5735473632812 909.9478759765625 562.6868286132812 C 906.267822265625 563.8001708984375 902.1845092773438 564.6868286132812 897.6978759765625 565.3468627929688 C 893.2178344726562 566.0068359375 888.8411865234375 566.4935302734375 884.56787109375 566.8068237304688 C 880.2944946289062 567.1201782226562 876.384521484375 567.3302001953125 872.8378295898438 567.4368286132812 C 869.2978515625 567.536865234375 866.62451171875 567.5868530273438 864.81787109375 567.5868530273438 C 860.0245361328125 567.5868530273438 855.2478637695312 566.9801635742188 850.4878540039062 565.766845703125 C 845.7278442382812 564.546875 841.211181640625 562.8268432617188 836.9378662109375 560.6068725585938 C 832.6644897460938 558.3801879882812 828.701171875 555.6868286132812 825.0478515625 552.52685546875 C 821.4011840820312 549.3668823242188 818.2412109375 545.8568725585938 815.56787109375 541.996826171875 C 812.89453125 538.1434936523438 810.807861328125 533.9935302734375 809.307861328125 529.546875 C 807.8145141601562 525.1001586914062 807.06787109375 520.4435424804688 807.06787109375 515.5768432617188 M 826.557861328125 507.44683837890625 C 829.8245239257812 506.4735107421875 833.5778198242188 505.3601989746094 837.81787109375 504.1068420410156 C 842.057861328125 502.8601989746094 846.5245361328125 501.5235290527344 851.2178344726562 500.09686279296875 C 855.904541015625 498.6701965332031 860.6644897460938 497.1935119628906 865.4978637695312 495.6668701171875 C 870.3245239257812 494.14019775390625 874.9778442382812 492.63018798828125 879.4578247070312 491.1368408203125 C 883.9445190429688 489.6435241699219 888.0811767578125 488.21685791015625 891.8678588867188 486.8568420410156 C 895.654541015625 485.5035095214844 898.8311767578125 484.2368469238281 901.3978271484375 483.0568542480469 C 900.6378173828125 480.4168701171875 899.3544921875 478.14019775390625 897.5478515625 476.22686767578125 C 895.7412109375 474.31353759765625 893.4645385742188 472.75018310546875 890.7178344726562 471.536865234375 C 887.97119140625 470.3235168457031 884.7911987304688 469.4201965332031 881.1778564453125 468.82684326171875 C 877.5645141601562 468.2335205078125 873.6044921875 467.9368591308594 869.2978515625 467.9368591308594 C 867.3511962890625 467.9368591308594 865.0411987304688 468.21685791015625 862.3678588867188 468.77685546875 C 859.6945190429688 469.3302001953125 856.8811645507812 470.21685791015625 853.9278564453125 471.4368591308594 C 850.9744873046875 472.6501770019531 847.9844970703125 474.2635192871094 844.9578247070312 476.27685546875 C 841.9378662109375 478.2968444824219 839.1778564453125 480.7635192871094 836.6778564453125 483.6768493652344 C 834.1712036132812 486.59686279296875 832.0145263671875 490.02020263671875 830.2078247070312 493.94683837890625 C 828.4011840820312 497.87353515625 827.1845092773438 502.37353515625 826.557861328125 507.44683837890625 ZM 946.4147338867188 515.5768432617188 C 946.4147338867188 505.7101745605469 947.8413696289062 496.7801818847656 950.6947021484375 488.786865234375 C 953.5413818359375 480.79351806640625 957.7446899414062 473.9835205078125 963.3046875 468.3568420410156 C 968.8646850585938 462.7301940917969 975.69140625 458.3868408203125 983.7847290039062 455.32684326171875 C 991.8780517578125 452.2735290527344 1001.2080688476562 450.7468566894531 1011.7747192382812 450.7468566894531 C 1015.3880615234375 450.7468566894531 1019.0880126953125 451.1268615722656 1022.8746948242188 451.8868408203125 C 1026.661376953125 452.65350341796875 1030.32470703125 453.766845703125 1033.86474609375 455.22686767578125 C 1037.411376953125 456.6868591308594 1040.7646484375 458.4935302734375 1043.9246826171875 460.6468505859375 C 1047.0914306640625 462.8001708984375 1049.854736328125 465.28350830078125 1052.2147216796875 468.09686279296875 C 1054.57470703125 470.9101867675781 1056.4346923828125 474.036865234375 1057.794677734375 477.47686767578125 C 1059.1480712890625 480.9168701171875 1059.82470703125 484.65350341796875 1059.82470703125 488.6868591308594 C 1059.82470703125 491.81353759765625 1059.1280517578125 494.0701904296875 1057.7347412109375 495.45684814453125 C 1056.3480224609375 496.8501892089844 1054.508056640625 497.8235168457031 1052.2147216796875 498.3768615722656 C 1050.201416015625 498.93017578125 1047.854736328125 499.43353271484375 1045.1746826171875 499.8868408203125 C 1042.5013427734375 500.3401794433594 1039.498046875 501.08685302734375 1036.1646728515625 502.1268615722656 L 966.4346923828125 523.806884765625 C 967.334716796875 528.046875 968.8114013671875 531.66015625 970.8646850585938 534.6468505859375 C 972.911376953125 537.6401977539062 975.3080444335938 540.1434936523438 978.0546875 542.1568603515625 C 980.8013916015625 544.170166015625 983.7880249023438 545.766845703125 987.0147094726562 546.9468383789062 C 990.248046875 548.133544921875 993.498046875 549.0202026367188 996.7647094726562 549.6068725585938 C 1000.0313720703125 550.2001953125 1003.2113647460938 550.58349609375 1006.3046875 550.7568359375 C 1009.391357421875 550.93017578125 1012.1880493164062 551.016845703125 1014.6947021484375 551.016845703125 C 1018.6547241210938 551.016845703125 1022.5780639648438 550.5635375976562 1026.4647216796875 549.6568603515625 C 1030.3580322265625 548.7568359375 1033.93798828125 547.7501831054688 1037.2047119140625 546.6368408203125 C 1040.471435546875 545.5234985351562 1043.3380126953125 544.516845703125 1045.8046875 543.6168823242188 C 1048.2713623046875 542.710205078125 1050.0614013671875 542.2568359375 1051.1746826171875 542.2568359375 C 1054.854736328125 542.2568359375 1057.548095703125 543.0902099609375 1059.2547607421875 544.7568359375 C 1060.9547119140625 546.43017578125 1061.8046875 549.036865234375 1061.8046875 552.5768432617188 C 1061.8046875 554.8701782226562 1060.641357421875 556.8501586914062 1058.314697265625 558.516845703125 C 1055.988037109375 560.1835327148438 1052.9813232421875 561.5735473632812 1049.294677734375 562.6868286132812 C 1045.61474609375 563.8001708984375 1041.5313720703125 564.6868286132812 1037.044677734375 565.3468627929688 C 1032.564697265625 566.0068359375 1028.18798828125 566.4935302734375 1023.9147338867188 566.8068237304688 C 1019.641357421875 567.1201782226562 1015.7313842773438 567.3302001953125 1012.1846923828125 567.4368286132812 C 1008.6447143554688 567.536865234375 1005.9713745117188 567.5868530273438 1004.1647338867188 567.5868530273438 C 999.3713989257812 567.5868530273438 994.5947265625 566.9801635742188 989.834716796875 565.766845703125 C 985.07470703125 564.546875 980.5580444335938 562.8268432617188 976.2847290039062 560.6068725585938 C 972.0113525390625 558.3801879882812 968.0480346679688 555.6868286132812 964.3947143554688 552.52685546875 C 960.748046875 549.3668823242188 957.5880126953125 545.8568725585938 954.9147338867188 541.996826171875 C 952.2413940429688 538.1434936523438 950.1547241210938 533.9935302734375 948.6547241210938 529.546875 C 947.161376953125 525.1001586914062 946.4147338867188 520.4435424804688 946.4147338867188 515.5768432617188 M 965.9047241210938 507.44683837890625 C 969.17138671875 506.4735107421875 972.9246826171875 505.3601989746094 977.1647338867188 504.1068420410156 C 981.4047241210938 502.8601989746094 985.8713989257812 501.5235290527344 990.564697265625 500.09686279296875 C 995.2514038085938 498.6701965332031 1000.0113525390625 497.1935119628906 1004.8447265625 495.6668701171875 C 1009.67138671875 494.14019775390625 1014.32470703125 492.63018798828125 1018.8046875 491.1368408203125 C 1023.2913818359375 489.6435241699219 1027.427978515625 488.21685791015625 1031.2147216796875 486.8568420410156 C 1035.0013427734375 485.5035095214844 1038.177978515625 484.2368469238281 1040.7447509765625 483.0568542480469 C 1039.9847412109375 480.4168701171875 1038.701416015625 478.14019775390625 1036.8946533203125 476.22686767578125 C 1035.0880126953125 474.31353759765625 1032.8114013671875 472.75018310546875 1030.064697265625 471.536865234375 C 1027.3179931640625 470.3235168457031 1024.1380615234375 469.4201965332031 1020.5247192382812 468.82684326171875 C 1016.911376953125 468.2335205078125 1012.9513549804688 467.9368591308594 1008.6447143554688 467.9368591308594 C 1006.6980590820312 467.9368591308594 1004.3880615234375 468.21685791015625 1001.7147216796875 468.77685546875 C 999.0413818359375 469.3302001953125 996.22802734375 470.21685791015625 993.2747192382812 471.4368591308594 C 990.3213500976562 472.6501770019531 987.3313598632812 474.2635192871094 984.3046875 476.27685546875 C 981.2847290039062 478.2968444824219 978.5247192382812 480.7635192871094 976.0247192382812 483.6768493652344 C 973.51806640625 486.59686279296875 971.3613891601562 490.02020263671875 969.5546875 493.94683837890625 C 967.748046875 497.87353515625 966.5313720703125 502.37353515625 965.9047241210938 507.44683837890625 ZM 1095.0416259765625 555.7068481445312 C 1095.0416259765625 554.6668701171875 1095.074951171875 553.2435302734375 1095.1416015625 551.4368286132812 C 1095.21484375 549.6301879882812 1095.2515869140625 547.266845703125 1095.2515869140625 544.3468627929688 C 1095.2515869140625 539.6201782226562 1095.111572265625 534.633544921875 1094.83154296875 529.3868408203125 C 1094.551513671875 524.1401977539062 1094.25830078125 518.6868286132812 1093.9515380859375 513.02685546875 C 1093.63818359375 507.3601989746094 1093.3582763671875 501.52020263671875 1093.111572265625 495.5068359375 C 1092.87158203125 489.50018310546875 1092.7515869140625 483.3335266113281 1092.7515869140625 477.0068359375 C 1092.7515869140625 474.5735168457031 1092.8548583984375 471.84686279296875 1093.0615234375 468.82684326171875 C 1093.2681884765625 465.8068542480469 1093.6849365234375 462.9935302734375 1094.3115234375 460.3868408203125 C 1094.938232421875 457.7801818847656 1095.841552734375 455.5901794433594 1097.0216064453125 453.8168640136719 C 1098.2015380859375 452.04351806640625 1099.7982177734375 451.1568603515625 1101.8115234375 451.1568603515625 C 1103.9715576171875 451.1568603515625 1105.658203125 451.83685302734375 1106.87158203125 453.19683837890625 C 1108.0849609375 454.5501708984375 1108.98828125 456.286865234375 1109.58154296875 458.4068603515625 C 1110.1749267578125 460.52685546875 1110.5216064453125 462.92352294921875 1110.62158203125 465.59686279296875 C 1110.728271484375 468.27020263671875 1110.7816162109375 470.9635009765625 1110.7816162109375 473.6768493652344 C 1113.21484375 470.13018798828125 1116.3082275390625 466.9168701171875 1120.0615234375 464.036865234375 C 1123.8082275390625 461.1501770019531 1127.8182373046875 458.7001953125 1132.091552734375 456.6868591308594 C 1136.37158203125 454.6668701171875 1140.6982421875 453.103515625 1145.071533203125 451.9968566894531 C 1149.4515380859375 450.8835144042969 1153.5181884765625 450.32684326171875 1157.2716064453125 450.32684326171875 C 1164.0782470703125 450.32684326171875 1170.071533203125 451.3168640136719 1175.2515869140625 453.2968444824219 C 1180.4249267578125 455.27685546875 1184.9049072265625 457.9701843261719 1188.6915283203125 461.3768615722656 C 1192.478271484375 464.78350830078125 1195.6416015625 468.72686767578125 1198.1815185546875 473.20684814453125 C 1200.71484375 477.6868591308594 1202.748291015625 482.43017578125 1204.2816162109375 487.4368591308594 C 1205.8082275390625 492.4368591308594 1206.901611328125 497.5601806640625 1207.5615234375 502.8068542480469 C 1208.2215576171875 508.05352783203125 1208.551513671875 513.1101684570312 1208.551513671875 517.9768676757812 L 1208.551513671875 535.6968383789062 C 1208.551513671875 540.210205078125 1208.2548828125 544.5701904296875 1207.66162109375 548.77685546875 C 1207.074951171875 552.9768676757812 1206.224853515625 556.6935424804688 1205.111572265625 559.9268798828125 C 1203.998291015625 563.16015625 1202.6248779296875 565.766845703125 1200.9915771484375 567.746826171875 C 1199.3582763671875 569.7268676757812 1197.5015869140625 570.7168579101562 1195.421630859375 570.7168579101562 C 1193.88818359375 570.7168579101562 1192.4615478515625 570.613525390625 1191.1416015625 570.4068603515625 C 1189.821533203125 570.1935424804688 1188.658203125 569.6868286132812 1187.651611328125 568.8868408203125 C 1186.6448974609375 568.093505859375 1185.8648681640625 566.8601684570312 1185.3115234375 565.1868286132812 C 1184.7515869140625 563.5202026367188 1184.4715576171875 561.2268676757812 1184.4715576171875 558.3068237304688 C 1184.4715576171875 555.6001586914062 1184.7515869140625 552.7702026367188 1185.3115234375 549.8168334960938 C 1185.8648681640625 546.863525390625 1186.4715576171875 543.8934936523438 1187.131591796875 540.9068603515625 C 1187.7916259765625 537.920166015625 1188.398193359375 534.93017578125 1188.9515380859375 531.9368286132812 C 1189.5115966796875 528.9501953125 1189.7916259765625 525.996826171875 1189.7916259765625 523.0768432617188 C 1189.7916259765625 519.8101806640625 1189.7049560546875 516.5635375976562 1189.5316162109375 513.3368530273438 C 1189.3582763671875 510.103515625 1188.9915771484375 506.92352294921875 1188.4315185546875 503.7968444824219 C 1187.8782958984375 500.6701965332031 1187.0982666015625 497.63018798828125 1186.091552734375 494.6768493652344 C 1185.0849609375 491.7235107421875 1183.7115478515625 488.8935241699219 1181.9715576171875 486.1868591308594 C 1180.5849609375 483.960205078125 1179.1416015625 481.786865234375 1177.6416015625 479.6668701171875 C 1176.148193359375 477.5468444824219 1174.341552734375 475.65350341796875 1172.2215576171875 473.9868469238281 C 1170.1082763671875 472.3201904296875 1167.554931640625 470.9835205078125 1164.5615234375 469.97686767578125 C 1161.574951171875 468.9701843261719 1157.8916015625 468.46685791015625 1153.5115966796875 468.46685791015625 C 1150.52490234375 468.46685791015625 1147.12158203125 469.0735168457031 1143.301513671875 470.286865234375 C 1139.4815673828125 471.50018310546875 1135.6416015625 473.2368469238281 1131.7816162109375 475.4968566894531 C 1127.92822265625 477.7568359375 1124.244873046875 480.46685791015625 1120.7315673828125 483.6268615722656 C 1117.224853515625 486.786865234375 1114.2916259765625 490.31353759765625 1111.9315185546875 494.20684814453125 L 1111.9315185546875 520.8968505859375 C 1111.9315185546875 521.796875 1111.9815673828125 522.960205078125 1112.08154296875 524.3868408203125 C 1112.188232421875 525.806884765625 1112.3448486328125 527.3868408203125 1112.551513671875 529.1268310546875 C 1112.75830078125 530.8668212890625 1113.0181884765625 532.7068481445312 1113.33154296875 534.6468505859375 C 1113.6448974609375 536.593505859375 1113.974853515625 538.5068359375 1114.321533203125 540.3868408203125 C 1114.881591796875 543.3001708984375 1115.5416259765625 546.0802001953125 1116.301513671875 548.7268676757812 C 1117.0682373046875 551.3668823242188 1117.4515380859375 553.83349609375 1117.4515380859375 556.1268310546875 C 1117.4515380859375 557.72021484375 1117.381591796875 559.246826171875 1117.2415771484375 560.7068481445312 C 1117.1015625 562.1668701171875 1116.73828125 563.4368286132812 1116.151611328125 564.516845703125 C 1115.5582275390625 565.5902099609375 1114.6348876953125 566.440185546875 1113.381591796875 567.0668334960938 C 1112.1348876953125 567.6935424804688 1110.398193359375 568.0068359375 1108.171630859375 568.0068359375 C 1106.7115478515625 568.0068359375 1105.21826171875 567.883544921875 1103.6915283203125 567.6368408203125 C 1102.1649169921875 567.3968505859375 1100.75830078125 566.8601684570312 1099.4715576171875 566.02685546875 C 1098.1849365234375 565.1935424804688 1097.1248779296875 563.960205078125 1096.2916259765625 562.3268432617188 C 1095.458251953125 560.6935424804688 1095.0416259765625 558.4868774414062 1095.0416259765625 555.7068481445312 Z" transform="matrix(0.9354872703552246, 0, 0, 0.9354872703552246, 46.653778076171875, 23.54714012145996)" style="fill: rgb(255, 255, 255); white-space: pre; color: rgb(255, 255, 255); stroke: rgb(153, 153, 153); stroke-width: 8; stroke-opacity: 1;"/><path d="M 305.1135559082031 487.6167297363281 C 305.1135559082031 485.8833923339844 305.20355224609375 484.0033874511719 305.383544921875 481.9767150878906 C 305.5702209472656 479.9500427246094 305.7668762207031 477.92340087890625 305.9735412597656 475.896728515625 C 306.1735534667969 473.87005615234375 306.36688232421875 471.9100646972656 306.5535583496094 470.0167236328125 C 306.7335510253906 468.1233825683594 306.82354736328125 466.4267272949219 306.82354736328125 464.9267272949219 L 307.9135437011719 396.69671630859375 C 307.9135437011719 395.69671630859375 308.1202087402344 394.81005859375 308.5335388183594 394.0367126464844 C 308.9402160644531 393.2633972167969 309.46356201171875 392.6134033203125 310.1035461425781 392.08673095703125 C 310.7435607910156 391.56005859375 311.4502258300781 391.1600646972656 312.2235412597656 390.88671875 C 312.99688720703125 390.6134033203125 313.7935485839844 390.4767150878906 314.6135559082031 390.4767150878906 C 315.2068786621094 390.4767150878906 315.8702087402344 390.6033935546875 316.6035461425781 390.8567199707031 C 317.3302307128906 391.1033935546875 318.0135498046875 391.49005126953125 318.653564453125 392.0167236328125 C 319.2868957519531 392.54339599609375 319.8102111816406 393.21673583984375 320.2235412597656 394.0367126464844 C 320.6302185058594 394.8567199707031 320.83355712890625 395.83673095703125 320.83355712890625 396.9767150878906 C 320.83355712890625 400.39007568359375 320.7535400390625 403.76007080078125 320.59356689453125 407.08673095703125 C 320.4402160644531 410.41339111328125 320.2602233886719 413.70672607421875 320.0535583496094 416.96673583984375 C 319.8468933105469 420.2267150878906 319.6635437011719 423.4500732421875 319.5035400390625 426.63671875 C 319.34356689453125 429.8300476074219 319.2635498046875 433.00006103515625 319.2635498046875 436.146728515625 C 319.2635498046875 438.7867126464844 319.2768859863281 441.4167175292969 319.3035583496094 444.0367126464844 C 319.32354736328125 446.65673828125 319.4235534667969 449.4267272949219 319.6035461425781 452.34674072265625 C 322.61688232421875 449.0200500488281 325.490234375 445.9433898925781 328.2235412597656 443.1167297363281 C 330.9568786621094 440.2900695800781 333.6435546875 437.56671142578125 336.2835693359375 434.94671630859375 C 338.93023681640625 432.32672119140625 341.54022216796875 429.7633972167969 344.1135559082031 427.2567138671875 C 346.6868896484375 424.75006103515625 349.296875 422.1767272949219 351.94354248046875 419.5367126464844 C 352.5768737792969 418.896728515625 353.23687744140625 418.1667175292969 353.9235534667969 417.34674072265625 C 354.6102294921875 416.5267333984375 355.3402099609375 415.7633972167969 356.1135559082031 415.0567321777344 C 356.88690185546875 414.3500671386719 357.69354248046875 413.7467346191406 358.5335693359375 413.2467346191406 C 359.3802185058594 412.74005126953125 360.3035583496094 412.4867248535156 361.3035583496094 412.4867248535156 C 362.7168884277344 412.4867248535156 363.8802185058594 412.6033935546875 364.7935485839844 412.83673095703125 C 365.7068786621094 413.0633850097656 366.4235534667969 413.43670654296875 366.94354248046875 413.95672607421875 C 367.47021484375 414.4833984375 367.8368835449219 415.1333923339844 368.0435485839844 415.90673828125 C 368.2435607910156 416.6800537109375 368.34356689453125 417.6167297363281 368.34356689453125 418.71673583984375 C 368.34356689453125 419.6700439453125 368.2068786621094 420.46673583984375 367.9335632324219 421.1067199707031 C 367.66021728515625 421.74005126953125 367.306884765625 422.2967224121094 366.87353515625 422.7767333984375 C 366.4402160644531 423.2567138671875 365.9168701171875 423.6900634765625 365.3035583496094 424.07672119140625 C 364.6902160644531 424.46337890625 364.04022216796875 424.88671875 363.3535461425781 425.34674072265625 C 362.8535461425781 425.70672607421875 362.2168884277344 426.19671630859375 361.44354248046875 426.81671142578125 C 360.67022705078125 427.4300537109375 359.8368835449219 428.1134033203125 358.94354248046875 428.8667297363281 C 358.056884765625 429.6134033203125 357.13690185546875 430.4200439453125 356.1835632324219 431.2867126464844 C 355.2235412597656 432.15338134765625 354.2868957519531 432.9967346191406 353.3735656738281 433.81671142578125 C 351.1868896484375 435.7767333984375 348.88690185546875 437.9200439453125 346.4735412597656 440.2467346191406 L 357.6135559082031 464.71673583984375 C 358.57354736328125 466.7700500488281 359.47357177734375 468.570068359375 360.31353759765625 470.1167297363281 C 361.16021728515625 471.6700439453125 362.0168762207031 473.2100524902344 362.883544921875 474.7367248535156 C 363.7435607910156 476.2633972167969 364.6302185058594 477.88006591796875 365.5435485839844 479.58673095703125 C 366.4568786621094 481.29339599609375 367.4368896484375 483.3567199707031 368.4835510253906 485.7767333984375 C 368.8035583496094 486.6833801269531 369.076904296875 487.5467224121094 369.3035583496094 488.3667297363281 C 369.53021240234375 489.1000671386719 369.72357177734375 489.820068359375 369.883544921875 490.5267333984375 C 370.0435485839844 491.2333984375 370.12353515625 491.8133850097656 370.12353515625 492.2667236328125 C 370.12353515625 493.4533996582031 369.9402160644531 494.6500549316406 369.57354736328125 495.8567199707031 C 369.21356201171875 497.0633850097656 368.70355224609375 498.15673828125 368.0435485839844 499.13671875 C 367.383544921875 500.1167297363281 366.60687255859375 500.91339111328125 365.71356201171875 501.5267333984375 C 364.826904296875 502.146728515625 363.8602294921875 502.45672607421875 362.81353759765625 502.45672607421875 C 361.48687744140625 502.45672607421875 360.4502258300781 501.9300537109375 359.70355224609375 500.876708984375 C 358.9502258300781 499.8300476074219 358.33355712890625 498.5900573730469 357.8535461425781 497.15673828125 C 357.37353515625 495.71673583984375 356.97357177734375 494.223388671875 356.653564453125 492.6767272949219 C 356.3402099609375 491.13006591796875 355.95355224609375 489.8533935546875 355.4935607910156 488.8467102050781 L 337.383544921875 448.9267272949219 L 332.9335632324219 454.5367126464844 C 331.88690185546875 455.8567199707031 330.8268737792969 457.2100524902344 329.7535400390625 458.59674072265625 C 328.6868896484375 459.99005126953125 327.58355712890625 461.3133850097656 326.44354248046875 462.56671142578125 C 325.3035583496094 463.820068359375 324.1402282714844 464.9367370605469 322.95355224609375 465.9167175292969 C 321.7735595703125 466.896728515625 320.5435485839844 467.5900573730469 319.2635498046875 467.9967346191406 L 319.6035461425781 487.4167175292969 C 319.6035461425781 488.2367248535156 319.4668884277344 489.06671142578125 319.19354248046875 489.90673828125 C 318.92022705078125 490.7533874511719 318.48687744140625 491.5300598144531 317.8935546875 492.2367248535156 C 317.306884765625 492.9433898925781 316.5802307128906 493.52337646484375 315.71356201171875 493.9767150878906 C 314.8468933105469 494.4300537109375 313.8202209472656 494.65673828125 312.633544921875 494.65673828125 C 311.31353759765625 494.65673828125 310.1868896484375 494.3833923339844 309.2535400390625 493.83673095703125 C 308.3202209472656 493.2900695800781 307.5435485839844 492.6400451660156 306.9235534667969 491.88671875 C 306.3102111816406 491.1400451660156 305.85687255859375 490.3667297363281 305.5635681152344 489.56671142578125 C 305.2635498046875 488.7667236328125 305.1135559082031 488.1167297363281 305.1135559082031 487.6167297363281 ZM 386.7317810058594 463.146728515625 C 386.7317810058594 459.5933837890625 387.2451171875 455.8900451660156 388.27178955078125 452.0367126464844 C 389.2984619140625 448.1833801269531 390.7684631347656 444.5933837890625 392.6817932128906 441.2667236328125 C 394.50177001953125 437.9400634765625 396.7451171875 434.820068359375 399.4117736816406 431.90673828125 C 402.0784606933594 428.9867248535156 405.0517883300781 426.44671630859375 408.331787109375 424.2867126464844 C 411.6184387207031 422.12005615234375 415.1617736816406 420.4100646972656 418.9617919921875 419.15673828125 C 422.7684631347656 417.90338134765625 426.7451171875 417.2767333984375 430.89178466796875 417.2767333984375 C 434.0384521484375 417.2767333984375 437.0684509277344 417.69671630859375 439.9817810058594 418.5367126464844 C 442.90179443359375 419.3833923339844 445.6384582519531 420.5367126464844 448.1917724609375 421.9967346191406 C 450.7451171875 423.4500732421875 453.0784606933594 425.1800537109375 455.1917724609375 427.18670654296875 C 457.311767578125 429.1933898925781 459.1251220703125 431.34674072265625 460.63177490234375 433.646728515625 C 462.13177490234375 435.94671630859375 463.2917785644531 438.3500671386719 464.1117858886719 440.8567199707031 C 464.9384460449219 443.3634033203125 465.3517761230469 445.87005615234375 465.3517761230469 448.376708984375 C 465.3517761230469 450.61004638671875 465.2251281738281 452.5833740234375 464.9718017578125 454.2967224121094 C 464.71844482421875 456.0033874511719 464.4117736816406 457.7000732421875 464.0517883300781 459.38671875 C 463.7784423828125 461.12005615234375 463.505126953125 462.9100646972656 463.2317810058594 464.7567138671875 C 462.95843505859375 466.5967102050781 462.82177734375 468.75006103515625 462.82177734375 471.21673583984375 C 462.82177734375 473.3567199707031 462.97845458984375 475.12005615234375 463.2917785644531 476.5067138671875 C 463.6117858886719 477.9000549316406 464.0684509277344 479.0300598144531 464.6617736816406 479.896728515625 C 465.255126953125 480.7633972167969 465.9718017578125 481.3667297363281 466.811767578125 481.70672607421875 C 467.658447265625 482.0467224121094 468.6051025390625 482.21673583984375 469.65179443359375 482.21673583984375 C 469.92510986328125 482.21673583984375 470.2684326171875 482.13671875 470.6817932128906 481.9767150878906 C 471.08843994140625 481.81671142578125 471.4751281738281 481.63671875 471.841796875 481.4367370605469 C 472.20843505859375 481.23004150390625 472.5284423828125 481.02337646484375 472.8017883300781 480.81671142578125 C 473.07513427734375 480.61004638671875 473.255126953125 480.4400634765625 473.341796875 480.3067321777344 C 473.84844970703125 479.8067321777344 474.33843994140625 479.36004638671875 474.811767578125 478.96673583984375 C 475.2917785644531 478.5800476074219 475.9417724609375 478.38671875 476.76177978515625 478.38671875 C 478.40179443359375 478.38671875 479.6451110839844 478.7767333984375 480.4917907714844 479.5567321777344 C 481.331787109375 480.3300476074219 481.75177001953125 481.6033935546875 481.75177001953125 483.376708984375 C 481.75177001953125 484.4700622558594 481.4217834472656 485.61004638671875 480.76177978515625 486.7967224121094 C 480.1017761230469 487.9833984375 479.178466796875 489.06671142578125 477.9917907714844 490.0467224121094 C 476.80511474609375 491.0267333984375 475.39178466796875 491.83673095703125 473.75177001953125 492.4767150878906 C 472.1117858886719 493.11004638671875 470.2884521484375 493.4267272949219 468.28179931640625 493.4267272949219 C 464.2751159667969 493.4267272949219 460.84844970703125 492.300048828125 458.00177001953125 490.0467224121094 C 455.1484375 487.7867126464844 453.10845947265625 484.7000427246094 451.88177490234375 480.7867126464844 C 450.19512939453125 482.56005859375 448.34844970703125 484.2567138671875 446.341796875 485.876708984375 C 444.3351135253906 487.4967346191406 442.1251220703125 488.9100646972656 439.7117919921875 490.1167297363281 C 437.2984619140625 491.3233947753906 434.6217956542969 492.2800598144531 431.6817932128906 492.9867248535156 C 428.7417907714844 493.6933898925781 425.4951171875 494.0467224121094 421.9417724609375 494.0467224121094 C 419.2484436035156 494.0467224121094 416.50177001953125 493.6800537109375 413.7017822265625 492.94671630859375 C 410.90179443359375 492.2200622558594 408.1884460449219 491.19671630859375 405.5617980957031 489.876708984375 C 402.9417724609375 488.550048828125 400.4951171875 486.9433898925781 398.2217712402344 485.0567321777344 C 395.9417724609375 483.16339111328125 393.94512939453125 481.07672119140625 392.2317810058594 478.7967224121094 C 390.5251159667969 476.52337646484375 389.1817932128906 474.0633850097656 388.2017822265625 471.4167175292969 C 387.2217712402344 468.7767333984375 386.7317810058594 466.0200500488281 386.7317810058594 463.146728515625 M 399.52178955078125 463.0067138671875 C 399.52178955078125 465.8334045410156 400.2851257324219 468.4333801269531 401.8117980957031 470.8067321777344 C 403.33843994140625 473.17340087890625 405.3084411621094 475.2000427246094 407.7217712402344 476.88671875 C 410.1351318359375 478.5733947753906 412.8351135253906 479.8833923339844 415.82177734375 480.81671142578125 C 418.8084411621094 481.75006103515625 421.735107421875 482.21673583984375 424.6017761230469 482.21673583984375 C 428.43511962890625 482.21673583984375 431.9551086425781 481.4867248535156 435.1617736816406 480.0267333984375 C 438.3751220703125 478.5733947753906 441.1351318359375 476.6833801269531 443.4417724609375 474.3567199707031 C 445.7417907714844 472.0300598144531 447.5284423828125 469.4200439453125 448.8017883300781 466.5267333984375 C 450.081787109375 463.6333923339844 450.7218017578125 460.77337646484375 450.7218017578125 457.94671630859375 C 450.7218017578125 456.3533935546875 451.07513427734375 454.9533996582031 451.78179931640625 453.7467346191406 C 452.48846435546875 452.5400695800781 453.158447265625 451.3900451660156 453.7917785644531 450.2967224121094 C 453.97845458984375 450.070068359375 454.081787109375 449.71673583984375 454.1017761230469 449.2367248535156 C 454.1217956542969 448.7567138671875 454.1217956542969 448.2533874511719 454.1017761230469 447.7267150878906 C 454.081787109375 447.20672607421875 454.0484619140625 446.71673583984375 454.00177001953125 446.2567138671875 C 453.9551086425781 445.80340576171875 453.9317932128906 445.4867248535156 453.9317932128906 445.3067321777344 C 453.9317932128906 444.300048828125 453.58843994140625 443.20672607421875 452.90179443359375 442.0267333984375 C 452.2218017578125 440.8400573730469 451.3017883300781 439.65338134765625 450.14178466796875 438.46673583984375 C 448.9751281738281 437.2800598144531 447.65179443359375 436.13006591796875 446.1717834472656 435.0167236328125 C 444.6917724609375 433.896728515625 443.17510986328125 432.90673828125 441.6217956542969 432.0467224121094 C 440.07513427734375 431.1800537109375 438.5284423828125 430.4833984375 436.9817810058594 429.95672607421875 C 435.428466796875 429.4300537109375 434.0384521484375 429.1667175292969 432.811767578125 429.1667175292969 C 429.3451232910156 429.1667175292969 426.1184387207031 429.646728515625 423.13177490234375 430.6067199707031 C 420.15179443359375 431.56671142578125 417.428466796875 432.8667297363281 414.9617919921875 434.5067138671875 C 412.50177001953125 436.146728515625 410.30511474609375 438.070068359375 408.3717956542969 440.2767333984375 C 406.4317932128906 442.49005126953125 404.8117980957031 444.8500671386719 403.51177978515625 447.3567199707031 C 402.21844482421875 449.8634033203125 401.22845458984375 452.4600524902344 400.5417785644531 455.146728515625 C 399.8617858886719 457.8333740234375 399.52178955078125 460.4533996582031 399.52178955078125 463.0067138671875 ZM 494.6702880859375 483.1767272949219 C 494.5769348144531 480.4833984375 494.4402770996094 476.5167236328125 494.2602844238281 471.2767333984375 C 494.0802917480469 466.0367126464844 493.9902648925781 459.7267150878906 493.9902648925781 452.34674072265625 C 493.9902648925781 448.9267272949219 493.9902648925781 445.9533996582031 493.9902648925781 443.4267272949219 C 493.9902648925781 440.8934020996094 494.02362060546875 438.6033935546875 494.09027099609375 436.5567321777344 C 494.1569519042969 434.5033874511719 494.2469482421875 432.6000671386719 494.36029052734375 430.84674072265625 C 494.4736022949219 429.0933837890625 494.64361572265625 427.2800598144531 494.8702697753906 425.40673828125 C 495.05694580078125 424.00006103515625 495.6402893066406 422.8067321777344 496.6202697753906 421.82672119140625 C 497.60028076171875 420.84674072265625 498.6836242675781 420.3567199707031 499.8702697753906 420.3567199707031 C 500.41693115234375 420.3567199707031 501.0069580078125 420.42340087890625 501.6402893066406 420.5567321777344 C 502.2802734375 420.69671630859375 502.88360595703125 420.93670654296875 503.4502868652344 421.2767333984375 C 504.02362060546875 421.6167297363281 504.5269470214844 422.0833740234375 504.96026611328125 422.6767272949219 C 505.39361572265625 423.2700500488281 505.7236022949219 424.00006103515625 505.9502868652344 424.8667297363281 C 506.7236022949219 424.2267150878906 507.6902770996094 423.5200500488281 508.85028076171875 422.7467346191406 C 510.0169372558594 421.973388671875 511.37359619140625 421.243408203125 512.9202880859375 420.5567321777344 C 514.4736328125 419.876708984375 516.2302856445312 419.3067321777344 518.1903076171875 418.84674072265625 C 520.1436157226562 418.39337158203125 522.2836303710938 418.1667175292969 524.6102905273438 418.1667175292969 C 526.983642578125 418.1667175292969 529.43359375 418.5300598144531 531.9602661132812 419.2567138671875 C 534.4869384765625 419.99005126953125 536.923583984375 421.0733947753906 539.270263671875 422.5067138671875 C 541.616943359375 423.9400634765625 543.76025390625 425.70672607421875 545.7002563476562 427.8067321777344 C 547.6402587890625 429.9000549316406 549.2236328125 432.3133850097656 550.4502563476562 435.0467224121094 C 551.8635864257812 432.8133850097656 553.616943359375 430.820068359375 555.7102661132812 429.06671142578125 C 557.810302734375 427.3133850097656 560.1135864257812 425.820068359375 562.6203002929688 424.58673095703125 C 565.126953125 423.36004638671875 567.7569580078125 422.4267272949219 570.51025390625 421.7867126464844 C 573.270263671875 421.146728515625 576.0169677734375 420.82672119140625 578.750244140625 420.82672119140625 C 584.0369262695312 420.82672119140625 588.8336181640625 421.70672607421875 593.1402587890625 423.46673583984375 C 597.4469604492188 425.2200622558594 601.1402587890625 427.9300537109375 604.2202758789062 431.59674072265625 C 607.2935791015625 435.2633972167969 609.6636352539062 439.95672607421875 611.3302612304688 445.6767272949219 C 612.9902954101562 451.396728515625 613.8203125 458.223388671875 613.8203125 466.15673828125 C 613.8203125 468.02337646484375 613.7736206054688 469.8467102050781 613.6802978515625 471.626708984375 C 613.5936279296875 473.4000549316406 613.4702758789062 475.2667236328125 613.310302734375 477.2267150878906 C 613.1502685546875 479.1867370605469 612.9669189453125 481.3067321777344 612.76025390625 483.58673095703125 C 612.5535888671875 485.8667297363281 612.3602905273438 488.4167175292969 612.1802978515625 491.2367248535156 C 612.1802978515625 491.6033935546875 612.0435791015625 492.1167297363281 611.770263671875 492.7767333984375 C 611.4969482421875 493.4367370605469 611.1102905273438 494.07672119140625 610.6102905273438 494.69671630859375 C 610.1102905273438 495.31005859375 609.4935913085938 495.8433837890625 608.76025390625 496.2967224121094 C 608.0336303710938 496.7567138671875 607.213623046875 496.9867248535156 606.30029296875 496.9867248535156 C 605.0269775390625 496.9867248535156 603.8536376953125 496.7000427246094 602.7802734375 496.126708984375 C 601.7069702148438 495.56005859375 600.7736206054688 494.8533935546875 599.9802856445312 494.0067138671875 C 599.1802978515625 493.1667175292969 598.5635986328125 492.2567138671875 598.1302490234375 491.2767333984375 C 597.6969604492188 490.2967224121094 597.4802856445312 489.396728515625 597.4802856445312 488.57672119140625 C 597.4802856445312 486.75006103515625 597.6636352539062 485.2000427246094 598.0302734375 483.9267272949219 C 598.39697265625 482.65338134765625 598.8069458007812 481.3667297363281 599.26025390625 480.06671142578125 C 599.713623046875 478.7667236328125 600.1235961914062 477.320068359375 600.4902954101562 475.7267150878906 C 600.85693359375 474.126708984375 601.040283203125 472.0733947753906 601.040283203125 469.56671142578125 C 601.040283203125 467.38006591796875 601.0036010742188 465.2633972167969 600.9302978515625 463.21673583984375 C 600.8635864257812 461.16339111328125 600.8302612304688 459.04339599609375 600.8302612304688 456.8567199707031 C 600.8302612304688 454.2567138671875 600.3169555664062 451.52337646484375 599.290283203125 448.65673828125 C 598.270263671875 445.78338623046875 596.7802734375 443.1400451660156 594.8203125 440.7267150878906 C 592.8602905273438 438.3067321777344 590.4769287109375 436.300048828125 587.6702880859375 434.70672607421875 C 584.8703002929688 433.1134033203125 581.693603515625 432.31671142578125 578.1402587890625 432.31671142578125 C 576.3602905273438 432.31671142578125 574.3536376953125 432.5900573730469 572.1203002929688 433.13671875 C 569.886962890625 433.6833801269531 567.733642578125 434.5367126464844 565.6602783203125 435.69671630859375 C 563.5869140625 436.8634033203125 561.7202758789062 438.3567199707031 560.060302734375 440.1767272949219 C 558.3936157226562 441.9967346191406 557.2402954101562 444.1600646972656 556.6002807617188 446.6667175292969 L 556.6002807617188 476.20672607421875 C 556.6002807617188 476.4333801269531 556.6235961914062 476.9000549316406 556.6702880859375 477.6067199707031 C 556.7169189453125 478.3133850097656 556.7736206054688 479.05340576171875 556.8402709960938 479.82672119140625 C 556.9136352539062 480.6000671386719 556.9702758789062 481.3400573730469 557.01025390625 482.0467224121094 C 557.0569458007812 482.7533874511719 557.0802612304688 483.19671630859375 557.0802612304688 483.376708984375 C 557.0802612304688 484.3833923339844 556.943603515625 485.3533935546875 556.6702880859375 486.2867126464844 C 556.39697265625 487.2200622558594 555.9869384765625 488.0400695800781 555.4403076171875 488.7467346191406 C 554.8936157226562 489.4533996582031 554.2435913085938 490.02337646484375 553.4902954101562 490.45672607421875 C 552.7435913085938 490.8900451660156 551.8902587890625 491.1067199707031 550.9302978515625 491.1067199707031 C 549.9302978515625 491.1067199707031 548.8836059570312 491.0133972167969 547.790283203125 490.82672119140625 C 546.6903076171875 490.646728515625 545.6969604492188 490.29339599609375 544.810302734375 489.7667236328125 C 543.923583984375 489.2467346191406 543.193603515625 488.5300598144531 542.6203002929688 487.6167297363281 C 542.0535888671875 486.7033996582031 541.770263671875 485.5200500488281 541.770263671875 484.06671142578125 C 541.770263671875 483.79339599609375 541.8269653320312 483.2467346191406 541.9403076171875 482.4267272949219 C 542.0535888671875 481.6067199707031 542.1669311523438 480.74005126953125 542.2802734375 479.82672119140625 C 542.3936157226562 478.91339111328125 542.5069580078125 478.0800476074219 542.6203002929688 477.32672119140625 C 542.733642578125 476.5800476074219 542.790283203125 476.13671875 542.790283203125 475.9967346191406 L 542.790283203125 452.95672607421875 C 542.790283203125 450.54339599609375 542.3703002929688 448.0033874511719 541.5302734375 445.33673095703125 C 540.6903076171875 442.6700439453125 539.483642578125 440.2100524902344 537.9102783203125 437.95672607421875 C 536.3369140625 435.69671630859375 534.43359375 433.82672119140625 532.2002563476562 432.34674072265625 C 529.9669189453125 430.8667297363281 527.4602661132812 430.126708984375 524.6802978515625 430.126708984375 C 521.173583984375 430.126708984375 518.2669677734375 430.4700622558594 515.9602661132812 431.15673828125 C 513.6602783203125 431.83673095703125 511.8369445800781 432.896728515625 510.4902648925781 434.33673095703125 C 509.1502685546875 435.7700500488281 508.2169494628906 437.6033935546875 507.6902770996094 439.83673095703125 C 507.1702880859375 442.070068359375 506.9102783203125 444.7567138671875 506.9102783203125 447.896728515625 C 506.9102783203125 451.223388671875 506.95361328125 454.63006591796875 507.040283203125 458.1167297363281 C 507.13360595703125 461.6033935546875 507.3636169433594 464.896728515625 507.73028564453125 467.9967346191406 L 509.85028076171875 485.2267150878906 C 509.85028076171875 486.27337646484375 509.5769348144531 487.20672607421875 509.0302734375 488.0267333984375 C 508.4769592285156 488.8467102050781 507.8269348144531 489.5300598144531 507.0802917480469 490.07672119140625 C 506.3269348144531 490.6233825683594 505.5736083984375 491.0467224121094 504.8202819824219 491.3467102050781 C 504.06695556640625 491.6400451660156 503.463623046875 491.7867126464844 503.0102844238281 491.7867126464844 C 500.3236083984375 491.7867126464844 498.34027099609375 491.1600646972656 497.0602722167969 489.90673828125 C 495.7869567871094 488.65338134765625 494.9902648925781 486.4100646972656 494.6702880859375 483.1767272949219 Z" transform="matrix(1.2963107824325562, 0, 0, 1.2963107824325562, -96.57308959960938, -94.20597076416016)" style="fill: rgb(97, 97, 98); white-space: pre; color: rgb(42, 56, 209); fill-opacity: 1; stroke: rgb(34, 48, 245); stroke-width: 6;"/><path d="M 797.9384155273438 933.1915893554688" style="fill: rgb(255, 255, 255); fill-opacity: 1; stroke: rgb(153, 153, 153); stroke-opacity: 1; stroke-width: 8; paint-order: stroke;"/></g></svg>